# AST/ASF file generated using VICON BodyLanguage
# -----------------------------------------------
:version 1.10
:name VICON
:units
  mass 1.0
  length 0.45
  angle deg
:documentation
   .ast/.asf automatically generated from VICON data using
   VICON BodyBuilder and BodyLanguage model FoxedUp or BRILLIANT.MOD
:root
   order TX TY TZ RX RY RZ
   axis XYZ
   position 0 0 0  
   orientation 0 0 0 
:bonedata
  begin
     id 1 
     name lhipjoint
     direction 0.643824 -0.71708 0.266994 
     length 2.52133 
     axis 0 0 0  XYZ
  end
  begin
     id 2 
     name lfemur
     direction 0.34202 -0.939693 0  
     length 7.51824  
     axis 0 0 20  XYZ
    dof rx ry rz
    limits (-160.0 20.0)
           (-70.0 70.0)
           (-60.0 70.0)
  end
  begin
     id 3 
     name ltibia
     direction 0.34202 -0.939693 0   
     length 7.3685   
     axis 0 0 20   XYZ
    dof rx
    limits (-10.0 170.0)
  end
  begin
     id 4 
     name lfoot
     direction 0.105419 -0.289636 0.951314   
     length 2.20972   
     axis -90 7.62852e-016 20   XYZ
    dof rx rz
    limits (-45.0 90.0)
           (-70.0 20.0)
  end
  begin
     id 5 
     name ltoes
     direction 1.53549e-011 -4.21833e-011 1   
     length 1.10139   
     axis -90 7.62852e-016 20   XYZ
    dof rx
    limits (-90.0 20.0)
  end
  begin
     id 6 
     name rhipjoint
     direction -0.608823 -0.743445 0.276811   
     length 2.43192  
     axis 0 0 0  XYZ 
  end
  begin
     id 7 
     name rfemur
     direction -0.34202 -0.939693 0   
     length 7.69715   
     axis 0 0 -20   XYZ
    dof rx ry rz
    limits (-160.0 20.0)
           (-70.0 70.0)
           (-70.0 60.0)
  end
  begin
     id 8 
     name rtibia
     direction -0.34202 -0.939693 0   
     length 7.44924   
     axis 0 0 -20   XYZ
    dof rx
    limits (-10.0 170.0)
 end
 begin
     id 9 
     name rfoot
     direction -0.103614 -0.284677 0.953007   
     length 2.22623  
     axis -90 -7.62852e-016 -20   XYZ
    dof rx rz
    limits (-45.0 90.0)
           (-20.0 70.0)
  end
  begin
     id 10 
     name rtoes
     direction -1.53537e-011 -4.22026e-011 1   
     length 1.11   
     axis -90 -7.62852e-016 -20   XYZ
    dof rx
    limits (-90.0 20.0)
  end
  begin
     id 11 
     name lowerback
     direction -0.0101212 0.99662 -0.0815298   
     length 2.08277   
     axis 0 0 0   XYZ
    dof rx ry rz
    limits (-20.0 45.0)
           (-30.0 30.0)
           (-30.0 30.0)
  end
  begin
     id 12 
     name upperback
     direction 0.024314 0.999591 -0.0150645   
     length 2.08524   
     axis 0 0 0   XYZ
    dof rx ry rz
    limits (-20.0 45.0)
           (-30.0 30.0)
           (-30.0 30.0)
  end
  begin
     id 13 
     name thorax
     direction 0.0285959 0.999323 0.0231357   
     length 2.09645   
     axis 0 0 0   XYZ
    dof rx ry rz
    limits (-20.0 45.0)
           (-30.0 30.0)
           (-30.0 30.0)
  end
  begin
     id 14 
     name lowerneck
     direction -0.065512 0.979301 0.191515   
     length 1.63798   
     axis 0 0 0   XYZ
    dof rx ry rz
    limits (-20.0 45.0)
           (-30.0 30.0)
           (-30.0 30.0)
  end
  begin
     id 15 
     name upperneck
     direction 0.0498479 0.98191 -0.182667   
     length 1.68731   
     axis 0 0 0   XYZ
    dof rx ry rz
    limits (-20.0 45.0)
           (-30.0 30.0)
           (-30.0 30.0)
  end
  begin
     id 16
     name head
     direction 0.0230358 0.996257 -0.0833175  
     length 1.69785  
     axis 0 0 0   XYZ
    dof rx ry rz
    limits (-20.0 45.0)
           (-30.0 30.0)
           (-30.0 30.0)
  end
  begin
     id 17 
     name lclavicle
     direction 0.967963 0.201165 -0.150269  
     length 3.63976  
     axis 0 0 0   XYZ
    dof ry rz
    limits (-20.0 10.0)
           (0.0 20.0)
  end
  begin
     id 18 
     name lhumerus
     direction 1 -4.48954e-011 -2.92837e-028   
     length 5.32462   
     axis 180 -30 -90   XYZ
    dof rx ry rz
    limits (-60.0 90.0)
           (-90.0 90.0)
           (-90.0 90.0)
  end
  begin
     id 19
     name lradius
     direction 1 -4.48958e-011 -6.39511e-027   
     length 3.48402   
     axis 180 -30 -90   XYZ
    dof rx
    limits (-10.0 170.0)
  end
  begin
     id 20
     name lwrist
     direction 1 -4.48975e-011 -1.1413e-026   
     length 1.74201   
     axis 6.88575e-015 90 90   XYZ
    dof ry
    limits (-180.0 0.0)
 end
  begin
     id 21 
     name lhand
     direction 1 -4.48899e-011 -2.28192e-026   
     length 0.572476   
     axis 1.45643e-014 90 90   XYZ
    dof rx rz
    limits (-90.0 90.0)
           (-45.0 45.0)
  end
  begin
     id 22 
     name lfingers
     direction 1 -4.49155e-011 -4.5684e-026   
     length 0.461545   
     axis 2.91283e-014 90 90   XYZ
    dof rx
    limits (0.0 90.0)
  end
  begin
     id 23
     name lthumb
     direction 0.707107 -6.34943e-011 0.707107   
     length 0.662688   
     axis -90 45 -2.25915e-014   XYZ
    dof rx rz
    limits (-45.0 45.0)
           (-45.0 45.0)
  end
  begin
     id 24 
     name rclavicle
     direction -0.964103 0.264019 -0.0282629   
     length 3.54491  
     axis 0 0 0   XYZ 
    dof ry rz
    limits (-10.0 20.0)
           (-20.0 0.0)
  end
  begin
     id 25 
     name rhumerus
     direction -1 -4.48964e-011 -2.45032e-027  
     length 5.33589   
     axis 180 30 90   XYZ
    dof rx ry rz
    limits (-90.0 60.0)
           (-90.0 90.0)
           (-90.0 90.0)
  end
  begin
     id 26 
     name rradius
     direction -1 -4.48987e-011 -1.55093e-027   
     length 3.64134   
     axis 180 30 90   XYZ
    dof rx
    limits (-10.0 170.0)
  end
  begin
     id 27 
     name rwrist
     direction -1 -4.4897e-011 -1.14128e-026   
     length 1.82067   
     axis 6.88575e-015 -90 -90   XYZ
    dof ry
    limits (-180.0 0.0)
  end
  begin
     id 28
     name rhand
     direction -1 -4.49021e-011 -2.28301e-026   
     length 0.734811   
     axis 1.45643e-014 -90 -90   XYZ
    dof rx rz
    limits (-90.0 90.0)
           (-45.0 45.0)
  end
  begin
     id 29
     name rfingers
     direction -1 -4.48862e-011 -4.56319e-026   
     length 0.592424   
     axis 2.91283e-014 -90 -90   XYZ
    dof rx
    limits (0.0 90.0)
  end
  begin
     id 30
     name rthumb
     direction -0.707107 -6.34978e-011 0.707107   
     length 0.850605   
     axis -90 -45 2.25915e-014   XYZ
    dof rx rz
    limits (-45.0 45.0)
           (-45.0 45.0)
  end
:hierarchy
  begin
    root lhipjoint rhipjoint lowerback
    lhipjoint lfemur
    lfemur ltibia
    ltibia lfoot
    lfoot ltoes
    rhipjoint rfemur
    rfemur rtibia
    rtibia rfoot
    rfoot rtoes
    lowerback upperback
    upperback thorax
    thorax lowerneck lclavicle rclavicle
    lowerneck upperneck
    upperneck head
    lclavicle lhumerus
    lhumerus lradius
    lradius lwrist
    lwrist lhand lthumb
    lhand lfingers
    rclavicle rhumerus
    rhumerus rradius
    rradius rwrist
    rwrist rhand rthumb
    rhand rfingers
  end

#!OML:ASF F:\VICON\USERDATA\INSTALL\rory3\rory3.ASF
:FULLY-SPECIFIED
:DEGREES
1
root 13.4073 17.8847 3.59926 9.17756 -86.6354 -2.60926
lowerback 4.23325 -0.0452979 -0.699605
upperback -0.130031 -0.0469074 3.32854
thorax -2.50619 -0.00917889 3.83211
lowerneck -23.7456 4.26964 -5.93826
upperneck 23.6126 7.96122 0.533931
head 11.3602 3.04732 2.45173
rclavicle -4.87022e-015 -1.19271e-014
rhumerus -31.0829 -12.0026 -75.6208
rradius 31.6119
rwrist 18.9919
rhand -22.4603 2.90804
rfingers 7.12502
rthumb 3.96431 -27.0348
lclavicle -4.87022e-015 -1.19271e-014
lhumerus -24.5335 5.5324 86.5928
lradius 31.9869
lwrist -6.74685
lhand -14.1944 24.3288
lfingers 7.12502
lthumb 11.9416 53.9682
rfemur -22.5895 0.710731 21.5745
rtibia 31.1458
rfoot -16.7647 -11.5217
rtoes 12.2273
lfemur -7.25438 -1.20315 -16.9028
ltibia 34.6585
lfoot -11.4179 1.4995
ltoes -24.0857
2
root 13.3983 17.8848 3.58349 9.54728 -86.6469 -2.82918
lowerback 4.27245 0.015433 -0.580903
upperback -0.127532 0.040009 3.34704
thorax -2.53177 0.03265 3.77884
lowerneck -24.0826 4.11714 -6.51926
upperneck 23.8104 7.84948 1.06759
head 11.4498 3.006 2.7382
rclavicle 3.77691e-015 4.13472e-014
rhumerus -30.9202 -12.1698 -75.4925
rradius 31.5962
rwrist 19.0979
rhand -22.6846 2.89404
rfingers 7.12502
rthumb 3.74771 -27.0528
lclavicle 3.77691e-015 4.13472e-014
lhumerus -24.3093 5.75019 86.769
lradius 31.4548
lwrist -7.28842
lhand -14.2041 24.2849
lfingers 7.12502
lthumb 11.9323 53.9248
rfemur -22.7494 0.520905 21.6955
rtibia 31.122
rfoot -16.5461 -11.5033
rtoes 11.2965
lfemur -8.34301 -1.24031 -16.839
ltibia 36.2029
lfoot -11.2079 1.41192
ltoes -23.089
3
root 13.3872 17.8828 3.56842 10.6645 -86.7426 -3.72348
lowerback 4.22284 0.0914638 -0.406607
upperback -0.190908 0.150648 3.30607
thorax -2.57627 0.0865913 3.63051
lowerneck -24.1178 4.06605 -6.53897
upperneck 23.8349 7.7606 1.16969
head 11.4632 2.9775 2.767
rclavicle -7.95139e-016 -1.27222e-014
rhumerus -30.7787 -12.0839 -75.4866
rradius 31.4669
rwrist 19.1786
rhand -22.5443 2.86342
rfingers 7.12502
rthumb 3.88317 -27.0809
lclavicle -7.95139e-016 -1.27222e-014
lhumerus -24.1865 6.15424 86.921
lradius 30.8349
lwrist -8.00128
lhand -13.9999 23.934
lfingers 7.12502
lthumb 12.1292 53.5624
rfemur -22.9934 0.363012 21.8373
rtibia 31.0935
rfoot -16.4165 -11.3381
rtoes 11.246
lfemur -9.40913 -1.10021 -16.755
ltibia 37.5691
lfoot -10.9492 1.26488
ltoes -23.2094
4
root 13.3725 17.8826 3.54922 11.6273 -86.7956 -4.58629
lowerback 4.21045 0.122219 -0.32685
upperback -0.225967 0.196009 3.25333
thorax -2.60788 0.108815 3.52773
lowerneck -23.963 4.10243 -6.23214
upperneck 23.795 7.7177 1.04351
head 11.4397 2.9724 2.65935
rclavicle 1.78906e-015 3.10104e-014
rhumerus -30.6906 -12.1605 -75.502
rradius 31.3304
rwrist 19.6594
rhand -22.2596 2.84704
rfingers 7.12502
rthumb 4.15809 -27.0921
lclavicle 1.78906e-015 3.10104e-014
lhumerus -24.2162 6.62461 86.9178
lradius 30.3448
lwrist -8.67421
lhand -13.5902 23.5924
lfingers 7.12502
lthumb 12.5242 53.1971
rfemur -23.079 0.432982 21.9597
rtibia 31.1138
rfoot -16.4788 -11.3459
rtoes 11.4701
lfemur -10.2592 -0.980223 -16.6746
ltibia 38.7915
lfoot -10.7662 1.32884
ltoes -23.8847
5
root 13.3581 17.8799 3.53178 12.2595 -86.7859 -5.27051
lowerback 4.29553 0.165745 -0.240374
upperback -0.164135 0.257255 3.23518
thorax -2.59531 0.13724 3.4559
lowerneck -23.8829 4.05879 -6.16607
upperneck 23.7028 7.61917 1.05433
head 11.3958 2.94145 2.63211
rclavicle -7.95139e-016 -9.54166e-015
rhumerus -30.5374 -12.2748 -75.4516
rradius 31.2209
rwrist 19.9693
rhand -22.3027 2.69023
rfingers 7.12502
rthumb 4.1165 -27.2497
lclavicle -7.95139e-016 -9.54166e-015
lhumerus -24.1662 6.59455 87.0698
lradius 29.9548
lwrist -8.89398
lhand -14.0257 23.7536
lfingers 7.12502
lthumb 12.1043 53.3835
rfemur -22.9947 0.503504 22.0689
rtibia 31.1634
rfoot -16.5519 -11.3835
rtoes 11.4214
lfemur -10.8692 -1.01556 -16.5952
ltibia 39.833
lfoot -10.9651 1.43951
ltoes -23.9895
6
root 13.343 17.8742 3.51579 10.3464 -86.8874 -3.4658
lowerback 4.406 0.247696 -0.296448
upperback -0.0578978 0.361867 3.18408
thorax -2.55431 0.188808 3.42738
lowerneck -23.9763 3.97836 -6.20954
upperneck 23.7301 7.50876 1.13575
head 11.4227 2.8974 2.65575
rclavicle -8.15017e-015 7.15625e-015
rhumerus -30.3417 -12.296 -75.4089
rradius 31.1216
rwrist 19.95
rhand -22.4136 2.61167
rfingers 7.12502
rthumb 4.00939 -27.3304
lclavicle -8.15017e-015 7.15625e-015
lhumerus -23.9606 6.31176 87.3162
lradius 29.4567
lwrist -8.66108
lhand -14.9558 24.0983
lfingers 7.12502
lthumb 11.2073 53.779
rfemur -22.8634 0.541435 22.0234
rtibia 31.2414
rfoot -16.5888 -11.3486
rtoes 10.7896
lfemur -11.3045 -1.02224 -16.6921
ltibia 40.6517
lfoot -11.5702 1.3104
ltoes -23.8344
7
root 13.3198 17.8705 3.50354 9.29117 -87.1563 -2.50298
lowerback 4.41417 0.318502 -0.314652
upperback 0.0190912 0.452557 3.09158
thorax -2.48444 0.233028 3.33531
lowerneck -23.9535 4.01988 -6.0633
upperneck 23.8228 7.49367 1.20539
head 11.4557 2.90993 2.65791
rclavicle -8.54774e-015 -1.43125e-014
rhumerus -30.152 -12.1539 -75.5075
rradius 30.9278
rwrist 19.8951
rhand -22.2511 2.70239
rfingers 7.12502
rthumb 4.16633 -27.2366
lclavicle -8.54774e-015 -1.43125e-014
lhumerus -23.8388 6.64613 87.26
lradius 28.8512
lwrist -9.08766
lhand -15.2346 24.0477
lfingers 7.12502
lthumb 10.9385 53.7428
rfemur -22.7692 0.648354 22.0133
rtibia 31.3595
rfoot -16.6603 -11.2878
rtoes 10.1691
lfemur -11.6735 -0.91672 -16.8068
ltibia 41.2865
lfoot -12.3689 0.954549
ltoes -23.4788
8
root 13.2881 17.8683 3.49769 8.11116 -87.5218 -1.34957
lowerback 4.236 0.418838 -0.307776
upperback 0.112284 0.581122 3.02792
thorax -2.29541 0.294684 3.2572
lowerneck -23.9507 4.03099 -6.04411
upperneck 23.9179 7.46932 1.32883
head 11.4862 2.91379 2.69922
rclavicle -4.17448e-015 -2.78299e-014
rhumerus -29.936 -11.9181 -75.5074
rradius 30.7524
rwrist 19.853
rhand -22.0817 2.76424
rfingers 7.12502
rthumb 4.32987 -27.1715
lclavicle -4.17448e-015 -2.78299e-014
lhumerus -23.7959 7.18357 87.229
lradius 28.3531
lwrist -9.87974
lhand -15.0662 23.8643
lfingers 7.12502
lthumb 11.1009 53.5507
rfemur -22.7487 0.654551 21.9714
rtibia 31.5001
rfoot -16.6319 -11.0197
rtoes 10.1391
lfemur -12.0239 -0.861367 -17.012
ltibia 41.7617
lfoot -13.1947 0.615543
ltoes -22.8879
9
root 13.2662 17.865 3.48716 5.19676 -87.7292 1.51962
lowerback 4.19765 0.532287 -0.403946
upperback 0.197148 0.725088 3.0357
thorax -2.1964 0.365918 3.31085
lowerneck -23.9576 3.93065 -6.32551
upperneck 23.9151 7.38175 1.51118
head 11.4701 2.87409 2.79724
rclavicle 1.39149e-015 -1.59028e-015
rhumerus -29.7845 -12.1193 -75.1942
rradius 30.6958
rwrist 20.246
rhand -21.9056 2.8497
rfingers 7.12502
rthumb 4.49994 -27.0825
lclavicle 1.39149e-015 -1.59028e-015
lhumerus -23.7666 7.32108 87.4889
lradius 28.0227
lwrist -10.3809
lhand -15.1541 23.905
lfingers 7.12502
lthumb 11.0161 53.596
rfemur -22.7126 0.549216 21.9034
rtibia 31.6389
rfoot -16.6217 -10.7775
rtoes 10.1936
lfemur -12.3567 -0.938657 -17.2349
ltibia 42.1001
lfoot -13.9303 0.304078
ltoes -22.7665
10
root 13.2521 17.8602 3.47073 4.03798 -87.8037 2.66826
lowerback 4.25659 0.574389 -0.481444
upperback 0.18281 0.778948 3.03509
thorax -2.24858 0.394358 3.35036
lowerneck -23.7673 3.92412 -6.38228
upperneck 23.8611 7.36915 1.53042
head 11.411 2.86963 2.80312
rclavicle -3.97569e-016 2.8625e-014
rhumerus -29.6738 -12.4175 -74.9761
rradius 30.5277
rwrist 20.7365
rhand -21.7072 3.13808
rfingers 7.12502
rthumb 4.69147 -26.79
lclavicle -3.97569e-016 2.8625e-014
lhumerus -23.8125 7.66408 87.5281
lradius 27.6144
lwrist -11.0194
lhand -15.0581 23.7121
lfingers 7.12502
lthumb 11.1087 53.3981
rfemur -22.7322 0.646783 21.9272
rtibia 31.813
rfoot -16.7753 -10.7767
rtoes 10.7725
lfemur -12.7683 -0.982131 -17.302
ltibia 42.3036
lfoot -14.4813 0.191724
ltoes -23.3444
11
root 13.231 17.8581 3.45836 1.94216 -87.9208 4.79764
lowerback 4.21239 0.603304 -0.509212
upperback 0.125385 0.817205 2.93399
thorax -2.2841 0.415146 3.25892
lowerneck -23.6604 3.9676 -6.22983
upperneck 24.0781 7.34587 1.61092
head 11.4754 2.87454 2.80833
rclavicle -4.37326e-015 -3.26007e-014
rhumerus -29.6165 -12.487 -75.0249
rradius 30.3461
rwrist 20.7886
rhand -21.7792 3.01946
rfingers 7.12502
rthumb 4.622 -26.9101
lclavicle -4.37326e-015 -3.26007e-014
lhumerus -23.9357 7.96804 87.3818
lradius 27.1986
lwrist -11.4815
lhand -15.1291 23.8357
lfingers 7.12502
lthumb 11.0402 53.5254
rfemur -22.7912 0.926856 21.8599
rtibia 32.0142
rfoot -16.9773 -10.7671
rtoes 12.0984
lfemur -13.1796 -1.08469 -17.4445
ltibia 42.3678
lfoot -14.9745 0.389271
ltoes -23.4662
